# xmcd
#
# Track frame offsets:
#	150
#	16126
#	33129
#	47770
#	64160
#	75694
#	89620
#	105027
#	118659
#	132375
#	147944
#	162950
#	177031
#	189035
#	202243
#	217708
#	237887
#	254363
#	265830
#	284757
#	300168
#
# Disc length: 4250 seconds
#
# Revision: 1
# Processed by: cddbd v1.5.2PL0 Copyright (c) Steve Scherf et al.
# Submitted via: audiograbber 1.83.01
#
DISCID=18109815
DTITLE=Various Artist - RTL Hits Sommer 2018 CD2 2822
DYEAR=1900
DGENRE=
TTITLE0=Rudimental Feat. Jess Glynne, Macklemore and Dan Caplen - These Days
TTITLE1=Robin Schulz and Marc Scibilia - Unforgettable
TTITLE2=Chainsmokers - Sick Boy
TTITLE3=Kygo and Miguel - Remind Me To Forget
TTITLE4=Lost Frequencies and Zonderling - Crazy
TTITLE5=Martin Garrix and David Guetta - So Far Away
TTITLE6=Topic and Ally Brooke - Perfect
TTITLE7=Matt Simons - We Can Do Better
TTITLE8=Namika - Je Ne Parle Pas Francais
TTITLE9=Lea - Leiser
TTITLE10=Nick Howard - Where Do We Go
TTITLE11=Armin Van Buuren Feat. James Newman - Therapy
TTITLE12=Sdjm and Conor Maynard - That Way
TTITLE13=Alle Farben and Rhodes - H.o.l.y.
TTITLE14=Sigala and Paloma Faith - Lullaby
TTITLE15=G-Eazy and Halsey - Him and I
TTITLE16=Lauv - Chasing Fire  (Robin Schulz Remix)
TTITLE17=Ofenbach Vs. Nick Waterhouse - Katchi
TTITLE18=Axwell and Ingrosso - Dreamer
TTITLE19=Bausa - Was Du Liebe Nennst
TTITLE20=Olexesh Feat. Edin - Magisch
EXTD=
EXTT0=
EXTT1=
EXTT2=
EXTT3=
EXTT4=
EXTT5=
EXTT6=
EXTT7=
EXTT8=
EXTT9=
EXTT10=
EXTT11=
EXTT12=
EXTT13=
EXTT14=
EXTT15=
EXTT16=
EXTT17=
EXTT18=
EXTT19=
EXTT20=
PLAYORDER=
